<svg width="40" height="40" viewBox="0 0 40 40" fill="none" xmlns="http://www.w3.org/2000/svg">
<path fill-rule="evenodd" clip-rule="evenodd" d="M19.9999 38.7501C30.3552 38.7501 38.7499 30.3555 38.7499 20.0001C38.7499 9.64478 30.3552 1.25012 19.9999 1.25012C9.64454 1.25012 1.24988 9.64478 1.24988 20.0001C1.24988 30.3555 9.64454 38.7501 19.9999 38.7501ZM14.988 36.0177C16.5707 36.5124 18.2542 36.779 19.9999 36.779C21.734 36.779 23.4067 36.5159 24.9802 36.0275V31.9258C24.9807 31.2642 24.8494 30.609 24.5938 29.9987C24.3383 29.3884 23.9637 28.8351 23.492 28.3711C28.9998 27.4024 31.3045 24.0469 31.3045 20.0547C31.3045 18.1172 30.6599 16.3243 29.3943 14.8868C30.1093 12.6634 29.3686 10.7632 29.1999 10.3302C29.1916 10.3091 29.1847 10.2914 29.1795 10.2774C27.0701 10.086 24.8826 11.6563 24.4412 11.9922C23.1404 11.6407 21.6638 11.4493 20.0076 11.4493C18.3591 11.4493 16.8865 11.6329 15.5974 11.9805C15.4138 11.836 13.0545 10.0079 10.7849 10.211C10.7806 10.222 10.7753 10.2353 10.7692 10.2508C10.6063 10.6601 9.82577 12.6216 10.5935 14.8985C9.34352 16.3321 8.7068 18.1094 8.7068 20.043C8.7068 24.0274 10.9959 27.3789 16.488 28.3633C15.8318 29 15.3552 29.8204 15.1326 30.7383C14.113 30.9922 12.1013 31.25 11.0701 29.7227C9.6443 27.6172 8.41383 26.8399 7.2068 27.461C6.93885 27.7702 7.28538 28.0032 7.77812 28.3346C8.2192 28.6312 8.77745 29.0066 9.11695 29.586C9.16898 29.6717 9.218 29.8201 9.28039 30.009C9.64428 31.1103 10.4631 33.5888 14.988 33.0586V36.0177Z" fill="#21243D"/>
</svg>
