<svg width="40" height="40" viewBox="0 0 40 40" fill="none" xmlns="http://www.w3.org/2000/svg">
<path fill-rule="evenodd" clip-rule="evenodd" d="M19.9999 38.7501C30.3552 38.7501 38.7499 30.3555 38.7499 20.0001C38.7499 9.64478 30.3552 1.25012 19.9999 1.25012C9.64454 1.25012 1.24988 9.64478 1.24988 20.0001C1.24988 30.3555 9.64454 38.7501 19.9999 38.7501ZM14.7933 20.0001C14.7933 17.1329 17.1331 14.7931 20.0003 14.7931C22.8675 14.7931 25.2073 17.1329 25.2073 20.0001C25.2073 22.8673 22.8675 25.2072 20.0003 25.2072C17.1331 25.2072 14.7933 22.8673 14.7933 20.0001ZM11.9886 20.0001C11.9886 24.4337 15.5667 28.0118 20.0003 28.0118C24.4339 28.0118 28.012 24.4337 28.012 20.0001C28.012 15.5665 24.4339 11.9884 20.0003 11.9884C15.5667 11.9884 11.9886 15.5665 11.9886 20.0001ZM26.4691 11.6603C26.4691 12.6954 27.305 13.5314 28.3402 13.5314C28.586 13.5317 28.8294 13.4835 29.0566 13.3896C29.2837 13.2957 29.4901 13.1578 29.6639 12.984C29.8377 12.8102 29.9755 12.6038 30.0695 12.3767C30.1634 12.1495 30.2116 11.9061 30.2113 11.6603C30.2113 10.6251 29.3753 9.78919 28.3402 9.78919C27.305 9.78919 26.4691 10.6251 26.4691 11.6603Z" fill="#626682"/>
</svg>
