<svg width="40" height="40" viewBox="0 0 40 40" fill="none" xmlns="http://www.w3.org/2000/svg">
<g clip-path="url(#clip0_84801_183)">
<path d="M20 0.800293C9.39605 0.800293 0.800049 9.39629 0.800049 20.0003C0.800049 30.6043 9.39605 39.2003 20 39.2003C30.604 39.2003 39.2001 30.6043 39.2001 20.0003C39.2001 9.39629 30.604 0.800293 20 0.800293ZM15.3 27.9583H11.412V15.4463H15.3V27.9583ZM13.332 13.9103C12.104 13.9103 11.31 13.0403 11.31 11.9643C11.31 10.8663 12.128 10.0223 13.382 10.0223C14.636 10.0223 15.404 10.8663 15.428 11.9643C15.428 13.0403 14.636 13.9103 13.332 13.9103ZM29.5 27.9583H25.612V21.0243C25.612 19.4103 25.048 18.3143 23.6421 18.3143C22.5681 18.3143 21.9301 19.0563 21.6481 19.7703C21.5441 20.0243 21.518 20.3843 21.518 20.7423V27.9563H17.628V19.4363C17.628 17.8743 17.578 16.5683 17.526 15.4443H20.904L21.0821 17.1823H21.16C21.672 16.3663 22.9261 15.1623 25.0241 15.1623C27.5821 15.1623 29.5 16.8763 29.5 20.5603V27.9583Z" fill="#626682"/>
</g>
<defs>
<clipPath id="clip0_84801_183">
<rect width="40" height="40" fill="white"/>
</clipPath>
</defs>
</svg>
