<svg width="38" height="38" viewBox="0 0 38 38" fill="none" xmlns="http://www.w3.org/2000/svg">
<path fill-rule="evenodd" clip-rule="evenodd" d="M18.9999 37.7499C29.3552 37.7499 37.7499 29.3552 37.7499 18.9999C37.7499 8.64454 29.3552 0.249878 18.9999 0.249878C8.64454 0.249878 0.249878 8.64454 0.249878 18.9999C0.249878 29.3552 8.64454 37.7499 18.9999 37.7499ZM27.4216 15.2537C27.4216 15.0662 27.4216 14.8748 27.4099 14.6912C28.2576 14.0779 28.9959 13.3084 29.5857 12.4412C28.8045 12.781 27.9607 13.0232 27.0857 13.117C27.9881 12.5818 28.6677 11.7341 28.992 10.7302C28.156 11.2224 27.2185 11.5896 26.238 11.7732C25.4451 10.9295 24.3201 10.406 23.0701 10.406C20.4216 10.406 18.2185 12.7927 18.8318 15.742C17.106 15.6558 15.4177 15.2075 13.8766 14.4262C12.3354 13.6449 10.9759 12.548 9.88649 11.2068C9.50758 11.8474 9.29664 12.5857 9.29664 13.3943C9.29712 14.1086 9.47385 14.8117 9.81114 15.4413C10.1484 16.0709 10.6359 16.6076 11.2302 17.0037C10.5232 16.9763 9.84742 16.7771 9.2732 16.4529V16.5076C9.2712 17.5092 9.61601 18.4806 10.249 19.2567C10.8821 20.0329 11.7643 20.566 12.7459 20.7654C12.0584 20.9412 11.4568 20.9412 10.7888 20.8435C11.3357 22.5623 12.9373 23.8123 14.8435 23.8513C13.3552 25.0154 11.488 25.7029 9.4568 25.7029C9.09742 25.7029 8.76149 25.6873 8.40992 25.6482C10.3318 26.8787 12.613 27.5935 15.074 27.5935C23.0545 27.5935 27.4216 20.988 27.4216 15.2537Z" fill="#626682"/>
</svg>
